<svg xmlns="http://www.w3.org/2000/svg" xmlns:xlink="http://www.w3.org/1999/xlink" width="500" zoomAndPan="magnify" viewBox="0 0 375 374.999991" height="500" preserveAspectRatio="xMidYMid meet" version="1.0"><defs><g/><clipPath id="0c78999cc2"><path d="M 172.09375 240.070312 L 202.84375 240.070312 L 202.84375 285.820312 L 172.09375 285.820312 Z M 172.09375 240.070312 " clip-rule="nonzero"/></clipPath></defs><g clip-path="url(#0c78999cc2)"><path stroke-linecap="butt" transform="matrix(-0.0608911, -0.000000000000000007, 0.000000000000000007, -0.0605734, 206.495617, 291.341494)" fill-opacity="1" fill="#2b2b2b" fill-rule="nonzero" stroke-linejoin="miter" d="M 262.499814 93.728189 L 262.499814 293.769722 L 62.475656 293.769722 L 62.475656 393.726001 L 262.499814 393.726001 L 262.499814 843.722719 L 362.511893 843.722719 L 362.511893 393.726001 L 562.4719 393.726001 L 562.4719 293.769722 L 362.511893 293.769722 L 362.511893 93.728189 Z M 262.499814 93.728189 " stroke="#000000" stroke-width="5" stroke-opacity="1" stroke-miterlimit="4"/></g><g fill="#2b2b2b" fill-opacity="1"><g transform="translate(10.116216, 175.522506)"><g><path d="M 12.132812 -46.949219 C 9.34375 -44.777344 6.820312 -42.765625 4.554688 -40.957031 C 2.292969 -39.152344 0.40625 -37.3125 -1.152344 -35.480469 C -2.710938 -33.648438 -3.804688 -31.761719 -4.511719 -29.757812 C -5.21875 -27.757812 -5.355469 -25.507812 -5 -23 C -4.6875 -20.8125 -4.082031 -18.875 -3.101562 -17.195312 C -2.160156 -15.511719 -0.992188 -13.984375 0.441406 -12.617188 C 1.871094 -11.253906 3.457031 -9.992188 5.191406 -8.832031 C 6.925781 -7.671875 8.785156 -6.492188 10.679688 -5.355469 C 11.363281 -4.917969 11.871094 -4.535156 12.253906 -4.175781 C 12.632812 -3.816406 12.847656 -3.476562 12.941406 -3.117188 C 13.039062 -2.71875 13.015625 -2.300781 12.828125 -1.863281 C 12.648438 -1.382812 12.398438 -0.808594 12.082031 -0.144531 C 12.71875 0.550781 13.6875 1.28125 14.949219 2.007812 C 16.207031 2.738281 17.566406 3.289062 19.105469 3.648438 C 20.429688 1.644531 21.792969 -0.40625 23.195312 -2.464844 C 24.554688 -4.515625 25.914062 -6.570312 27.195312 -8.609375 C 28.476562 -10.648438 29.632812 -12.671875 30.710938 -14.683594 C 31.796875 -16.65625 32.710938 -18.644531 33.46875 -20.570312 C 34.1875 -22.488281 34.742188 -24.425781 35.054688 -26.285156 C 35.367188 -28.148438 35.445312 -29.9375 35.199219 -31.675781 C 34.859375 -34.066406 33.972656 -36.253906 32.574219 -38.242188 C 31.175781 -40.234375 29.449219 -41.929688 27.351562 -43.324219 C 25.257812 -44.679688 22.882812 -45.707031 20.269531 -46.367188 C 17.621094 -46.984375 14.90625 -47.179688 12.132812 -46.949219 Z M 10.496094 -34.324219 C 11.101562 -34.410156 11.824219 -34.265625 12.699219 -33.9375 C 13.53125 -33.601562 14.425781 -33.105469 15.339844 -32.492188 C 16.253906 -31.878906 17.140625 -31.136719 18.089844 -30.28125 C 18.996094 -29.417969 19.824219 -28.546875 20.574219 -27.617188 C 21.332031 -26.652344 21.960938 -25.710938 22.507812 -24.753906 C 23.023438 -23.753906 23.355469 -22.851562 23.472656 -22.042969 C 23.574219 -21.3125 23.511719 -20.601562 23.355469 -19.960938 C 23.164062 -19.269531 22.914062 -18.699219 22.613281 -18.203125 C 22.269531 -17.699219 21.917969 -17.277344 21.546875 -16.976562 C 21.175781 -16.675781 20.828125 -16.503906 20.546875 -16.464844 C 20.058594 -16.394531 19.460938 -16.554688 18.648438 -17.019531 C 17.839844 -17.484375 16.925781 -18.097656 15.992188 -18.875 C 15.054688 -19.648438 14.066406 -20.5 13.097656 -21.519531 C 12.085938 -22.53125 11.160156 -23.515625 10.351562 -24.558594 C 9.507812 -25.554688 8.792969 -26.527344 8.246094 -27.480469 C 7.703125 -28.394531 7.378906 -29.214844 7.28125 -29.90625 C 7.210938 -30.390625 7.230469 -30.847656 7.402344 -31.367188 C 7.582031 -31.847656 7.808594 -32.292969 8.121094 -32.707031 C 8.433594 -33.125 8.800781 -33.464844 9.210938 -33.773438 C 9.621094 -34.078125 10.050781 -34.261719 10.496094 -34.324219 Z M 10.496094 -34.324219 "/></g></g></g><g fill="#2b2b2b" fill-opacity="1"><g transform="translate(46.167122, 170.286603)"><g><path d="M 54.871094 -17.554688 L 51.921875 -21.398438 C 51.238281 -20.835938 50.515625 -20.265625 49.789062 -19.738281 C 49.027344 -19.167969 48.296875 -18.679688 47.605469 -18.238281 C 46.910156 -17.796875 46.246094 -17.4375 45.621094 -17.125 C 44.996094 -16.816406 44.4375 -16.675781 43.949219 -16.625 C 43.339844 -16.558594 42.832031 -16.671875 42.425781 -17.039062 C 42.015625 -17.410156 41.667969 -17.988281 41.375 -18.820312 C 41.085938 -19.613281 40.855469 -20.660156 40.636719 -21.953125 C 40.425781 -23.203125 40.265625 -24.75 40.078125 -26.539062 C 39.75 -29.710938 39.5625 -32.285156 39.523438 -34.253906 C 39.480469 -36.222656 39.519531 -37.828125 39.640625 -39.035156 C 39.765625 -40.199219 39.957031 -41.125 40.21875 -41.765625 C 40.484375 -42.371094 40.710938 -42.96875 40.984375 -43.492188 C 40.632812 -44.523438 40.117188 -45.5 39.445312 -46.457031 C 38.769531 -47.414062 38.074219 -48.164062 37.398438 -48.710938 L 22.703125 -41.382812 C 22.738281 -41.058594 22.789062 -40.570312 22.941406 -39.886719 C 23.058594 -39.160156 23.21875 -38.394531 23.390625 -37.546875 C 23.566406 -36.660156 23.699219 -35.769531 23.875 -34.886719 C 24.007812 -33.996094 24.132812 -33.183594 24.210938 -32.453125 C 24.402344 -30.582031 24.394531 -28.691406 24.191406 -26.695312 C 23.988281 -24.699219 23.6875 -22.859375 23.246094 -21.167969 C 22.804688 -19.480469 22.292969 -18.070312 21.671875 -16.933594 C 21.050781 -15.800781 20.367188 -15.238281 19.71875 -15.167969 C 19.066406 -15.101562 18.527344 -15.539062 18.015625 -16.511719 C 17.507812 -17.445312 17.183594 -18.976562 16.96875 -21.050781 C 16.824219 -22.433594 16.738281 -24.027344 16.707031 -25.914062 C 16.675781 -27.804688 16.644531 -29.691406 16.644531 -31.664062 C 16.648438 -33.597656 16.65625 -35.488281 16.671875 -37.300781 C 16.691406 -39.113281 16.695312 -40.632812 16.652344 -41.863281 C 16.113281 -42.300781 15.613281 -42.742188 15.074219 -43.179688 C 14.535156 -43.617188 13.957031 -44.046875 13.421875 -44.445312 C 12.890625 -44.800781 12.320312 -45.152344 11.757812 -45.421875 C 11.152344 -45.6875 10.605469 -45.835938 10.066406 -45.863281 L -5.582031 -36.21875 L -3.730469 -31.105469 C -2.742188 -31.457031 -1.890625 -31.585938 -1.152344 -31.582031 C -0.410156 -31.574219 0.199219 -31.269531 0.75 -30.707031 C 1.265625 -30.105469 1.6875 -29.203125 2.023438 -27.964844 C 2.355469 -26.722656 2.652344 -25.070312 2.867188 -22.996094 C 3.039062 -21.367188 3.132812 -19.652344 3.234375 -17.894531 C 3.335938 -16.136719 3.390625 -14.414062 3.445312 -12.734375 C 3.5 -11.011719 3.582031 -9.417969 3.660156 -7.90625 C 3.738281 -6.351562 3.835938 -5.003906 4 -3.828125 C 4.820312 -3.050781 5.632812 -2.355469 6.523438 -1.707031 C 7.375 -1.054688 8.214844 -0.484375 9.085938 0 C 9.917969 0.488281 10.734375 0.816406 11.582031 1.054688 C 12.386719 1.300781 13.171875 1.34375 13.988281 1.257812 C 15.207031 1.128906 16.390625 0.636719 17.523438 -0.304688 C 18.660156 -1.242188 19.800781 -2.515625 20.867188 -4.144531 C 21.933594 -5.738281 22.964844 -7.695312 23.964844 -9.9375 C 24.964844 -12.179688 25.898438 -14.660156 26.847656 -17.390625 L 28.214844 -5.445312 C 29.03125 -4.707031 29.757812 -4.042969 30.480469 -3.421875 C 31.167969 -2.753906 31.839844 -2.207031 32.546875 -1.746094 C 33.214844 -1.238281 33.910156 -0.898438 34.59375 -0.640625 C 35.277344 -0.382812 36.066406 -0.300781 36.882812 -0.386719 Z M 54.871094 -17.554688 "/></g></g></g><g fill="#2b2b2b" fill-opacity="1"><g transform="translate(93.593851, 165.47224)"><g><path d="M 18.382812 -30.199219 L 24.671875 -30.550781 L 33.132812 -35.105469 L 31.316406 -40.023438 C 30.203125 -39.535156 29.164062 -39.136719 28.160156 -38.824219 C 27.160156 -38.507812 26.152344 -38.234375 25.101562 -38 C 24.054688 -37.761719 22.957031 -37.605469 21.816406 -37.484375 C 20.679688 -37.367188 19.414062 -37.28125 18.027344 -37.183594 C 17.929688 -39.800781 17.902344 -42.011719 17.988281 -43.742188 C 18.074219 -45.46875 18.253906 -46.996094 18.535156 -48.289062 C 18.820312 -49.535156 19.191406 -50.667969 19.695312 -51.6875 C 20.160156 -52.703125 20.742188 -53.765625 21.484375 -54.925781 L 17.484375 -58.257812 L 2.226562 -45.242188 L 2.78125 -36.550781 L -3.582031 -36.113281 L -3.308594 -29.738281 C -2 -29.746094 -0.890625 -29.699219 -0.0195312 -29.554688 C 0.855469 -29.367188 1.578125 -29.007812 2.105469 -28.46875 C 2.636719 -27.890625 3.058594 -27.097656 3.335938 -26.054688 C 3.574219 -25.003906 3.792969 -23.582031 3.910156 -21.871094 C 3.957031 -21.21875 3.972656 -20.359375 4.039062 -19.378906 C 4.109375 -18.398438 4.140625 -17.296875 4.179688 -16.148438 C 4.21875 -15.003906 4.257812 -13.820312 4.34375 -12.59375 C 4.386719 -11.367188 4.425781 -10.183594 4.464844 -9.035156 C 4.5 -7.890625 4.53125 -6.867188 4.589844 -5.972656 C 4.65625 -5.03125 4.707031 -4.296875 4.742188 -3.769531 C 5.375 -2.910156 6.125 -2.140625 6.910156 -1.457031 C 7.695312 -0.773438 8.46875 -0.210938 9.285156 0.304688 C 10.058594 0.828125 10.863281 1.222656 11.625 1.539062 C 12.386719 1.898438 13.136719 2.089844 13.800781 2.210938 L 34.601562 -12.457031 L 31.949219 -16.496094 C 31.28125 -16.042969 30.574219 -15.582031 29.871094 -15.125 C 29.121094 -14.664062 28.410156 -14.285156 27.699219 -13.910156 C 26.984375 -13.53125 26.351562 -13.203125 25.714844 -12.953125 C 25.074219 -12.707031 24.550781 -12.585938 24.144531 -12.558594 C 23.695312 -12.527344 23.238281 -12.578125 22.816406 -12.753906 C 22.355469 -12.929688 21.929688 -13.144531 21.539062 -13.445312 C 21.023438 -13.820312 20.582031 -14.28125 20.296875 -14.835938 C 19.972656 -15.386719 19.710938 -16.191406 19.519531 -17.203125 C 19.328125 -18.214844 19.15625 -19.511719 19.042969 -21.144531 C 18.894531 -22.734375 18.753906 -24.773438 18.585938 -27.222656 Z M 18.382812 -30.199219 "/></g></g></g><g fill="#2b2b2b" fill-opacity="1"><g transform="translate(125.769125, 163.290813)"><g><path d="M 35.050781 -14.207031 L 32.351562 -18.0625 C 31.398438 -17.367188 30.441406 -16.714844 29.445312 -16.097656 C 28.410156 -15.441406 27.453125 -14.871094 26.492188 -14.335938 C 25.53125 -13.804688 24.609375 -13.359375 23.761719 -13.035156 C 22.917969 -12.671875 22.1875 -12.519531 21.617188 -12.496094 C 20.636719 -12.453125 19.804688 -12.785156 19.035156 -13.574219 C 18.261719 -14.359375 17.5625 -15.476562 16.96875 -16.925781 C 16.375 -18.371094 15.851562 -20.152344 15.433594 -22.261719 C 14.976562 -24.371094 14.59375 -26.6875 14.316406 -29.296875 C 16.824219 -32.019531 19.296875 -34.539062 21.65625 -36.769531 C 24.019531 -38.996094 26.140625 -41.132812 27.980469 -43.132812 C 29.777344 -45.132812 31.25 -47.078125 32.316406 -48.964844 C 33.386719 -50.8125 33.917969 -52.757812 33.832031 -54.800781 C 33.757812 -56.558594 33.199219 -58.171875 32.234375 -59.683594 C 31.269531 -61.160156 29.949219 -62.414062 28.308594 -63.488281 C 26.667969 -64.527344 24.75 -65.304688 22.558594 -65.867188 C 20.324219 -66.429688 17.980469 -66.65625 15.449219 -66.550781 C 13.5625 -64.667969 11.832031 -63 10.257812 -61.542969 C 8.679688 -60.082031 7.265625 -58.671875 6.058594 -57.273438 C 4.808594 -55.867188 3.765625 -54.390625 2.847656 -52.796875 C 1.933594 -51.203125 1.238281 -49.292969 0.714844 -47.140625 C 0.148438 -44.988281 -0.191406 -42.4375 -0.394531 -39.480469 C -0.597656 -36.527344 -0.574219 -33.007812 -0.398438 -28.878906 C -0.214844 -24.46875 0.164062 -20.347656 0.730469 -16.609375 C 1.300781 -12.824219 2.175781 -9.546875 3.359375 -6.730469 C 4.542969 -3.917969 6.070312 -1.648438 7.945312 0.0742188 C 9.816406 1.796875 12.191406 2.761719 15.066406 3.007812 Z M 13.503906 -40.84375 C 13.386719 -43.625 13.332031 -45.914062 13.417969 -47.71875 C 13.464844 -49.519531 13.609375 -51 13.847656 -52.074219 C 14.089844 -53.148438 14.425781 -53.898438 14.816406 -54.324219 C 15.210938 -54.75 15.730469 -55.019531 16.300781 -55.042969 C 16.875 -55.066406 17.453125 -54.886719 18.039062 -54.585938 C 18.585938 -54.238281 19.097656 -53.808594 19.570312 -53.296875 C 20 -52.742188 20.394531 -52.1875 20.664062 -51.542969 C 20.9375 -50.898438 21.128906 -50.253906 21.152344 -49.679688 C 21.179688 -49.070312 21.046875 -48.367188 20.792969 -47.578125 C 20.539062 -46.789062 20.128906 -45.871094 19.558594 -44.785156 C 18.949219 -43.695312 18.1875 -42.394531 17.265625 -40.960938 C 16.304688 -39.488281 15.144531 -37.804688 13.753906 -35.863281 C 13.679688 -36.636719 13.648438 -37.453125 13.613281 -38.269531 Z M 13.503906 -40.84375 "/></g></g></g><g fill="#2b2b2b" fill-opacity="1"><g transform="translate(153.076206, 162.146722)"><g><path d="M 15.703125 -66.925781 L 3.160156 -53.191406 L 6.78125 -47.902344 L 25.070312 -56.144531 C 24.378906 -58.09375 23.652344 -59.796875 22.886719 -61.253906 C 22.125 -62.671875 21.324219 -63.84375 20.488281 -64.726562 C 19.65625 -65.613281 18.824219 -66.210938 18 -66.5625 C 17.175781 -66.914062 16.398438 -67.023438 15.703125 -66.925781 Z M 33.261719 -12.371094 L 30.609375 -16.449219 C 28.101562 -14.929688 26.117188 -13.871094 24.574219 -13.226562 C 23.035156 -12.585938 21.851562 -12.316406 21.03125 -12.464844 C 20.210938 -12.574219 19.628906 -13.050781 19.367188 -13.945312 C 19.066406 -14.800781 18.921875 -15.984375 18.890625 -17.539062 C 18.851562 -19.5 18.9375 -21.464844 19.1875 -23.515625 C 19.433594 -25.523438 19.722656 -27.492188 20.015625 -29.378906 C 20.308594 -31.265625 20.601562 -33.070312 20.894531 -34.796875 C 21.1875 -36.519531 21.324219 -38.035156 21.378906 -39.425781 C 20.632812 -40.027344 19.964844 -40.625 19.421875 -41.230469 C 18.839844 -41.792969 18.296875 -42.351562 17.753906 -42.875 C 17.214844 -43.355469 16.632812 -43.792969 16.011719 -44.152344 C 15.394531 -44.464844 14.652344 -44.699219 13.75 -44.84375 L -2.492188 -36.519531 L -1.085938 -31.308594 C -0.0273438 -31.617188 0.871094 -31.757812 1.605469 -31.769531 C 2.34375 -31.742188 2.921875 -31.425781 3.421875 -30.863281 C 3.882812 -30.300781 4.226562 -29.367188 4.457031 -28.144531 C 4.683594 -26.878906 4.839844 -25.164062 4.878906 -23.039062 C 4.929688 -20.378906 4.855469 -17.925781 4.652344 -15.671875 C 4.449219 -13.378906 4.203125 -11.367188 3.949219 -9.644531 C 3.695312 -7.882812 3.476562 -6.445312 3.253906 -5.296875 C 3.03125 -4.148438 2.960938 -3.371094 2.96875 -2.960938 C 3.351562 -2.230469 3.855469 -1.546875 4.484375 -0.820312 C 5.070312 -0.0976562 5.777344 0.542969 6.523438 1.144531 C 7.273438 1.742188 8.101562 2.257812 8.96875 2.691406 C 9.835938 3.125 10.738281 3.394531 11.640625 3.5 Z M 33.261719 -12.371094 "/></g></g></g><g fill="#2b2b2b" fill-opacity="1"><g transform="translate(177.872726, 161.47838)"><g><path d="M -1.480469 -36.582031 L -0.28125 -31.289062 C 0.375 -31.566406 0.910156 -31.765625 1.402344 -31.921875 C 1.894531 -32.039062 2.34375 -32.113281 2.753906 -32.109375 C 3.328125 -32.101562 3.816406 -31.890625 4.21875 -31.515625 C 4.582031 -31.144531 4.859375 -30.488281 5.09375 -29.503906 C 5.285156 -28.519531 5.429688 -27.207031 5.488281 -25.488281 C 5.546875 -23.769531 5.5625 -21.601562 5.527344 -18.984375 C 5.488281 -16.042969 5.375 -13.628906 5.269531 -11.789062 C 5.121094 -9.953125 4.894531 -8.441406 4.59375 -7.261719 C 4.292969 -6.039062 3.871094 -5.0625 3.328125 -4.25 C 2.785156 -3.441406 2.078125 -2.589844 1.25 -1.703125 C 1.71875 -0.222656 2.359375 1.09375 3.203125 2.167969 C 4.046875 3.242188 4.894531 4.03125 5.707031 4.492188 L 21.101562 -3.117188 C 21.105469 -3.199219 21.027344 -3.527344 20.910156 -4.101562 C 20.757812 -4.675781 20.644531 -5.414062 20.488281 -6.234375 C 20.335938 -7.050781 20.1875 -7.996094 20.078125 -8.976562 C 19.925781 -9.960938 19.898438 -10.945312 19.910156 -11.84375 C 19.929688 -13.480469 20.160156 -15.195312 20.671875 -16.984375 C 21.1875 -18.777344 21.78125 -20.40625 22.539062 -21.910156 C 23.292969 -23.414062 24.046875 -24.671875 24.875 -25.640625 C 25.707031 -26.613281 26.449219 -27.09375 27.105469 -27.085938 C 27.882812 -27.074219 28.484375 -26.25 28.914062 -24.6875 C 29.300781 -23.128906 29.515625 -20.796875 29.476562 -17.769531 C 29.457031 -16.175781 29.351562 -14.664062 29.253906 -13.273438 C 29.113281 -11.84375 28.972656 -10.496094 28.832031 -9.273438 C 28.695312 -8.046875 28.554688 -6.902344 28.460938 -5.839844 C 28.324219 -4.78125 28.269531 -3.800781 28.257812 -2.941406 C 28.859375 -2.03125 29.421875 -1.207031 29.941406 -0.421875 C 30.421875 0.402344 30.945312 1.101562 31.507812 1.722656 C 32.03125 2.386719 32.640625 2.925781 33.328125 3.34375 C 33.976562 3.800781 34.789062 4.097656 35.769531 4.234375 L 56.667969 -11.03125 L 54.144531 -15.195312 C 53.359375 -14.714844 52.535156 -14.234375 51.710938 -13.753906 C 50.886719 -13.273438 50.066406 -12.878906 49.285156 -12.519531 C 48.5 -12.121094 47.761719 -11.84375 47.105469 -11.605469 C 46.40625 -11.371094 45.832031 -11.257812 45.382812 -11.261719 C 44.480469 -11.273438 43.875 -11.730469 43.558594 -12.675781 C 43.246094 -13.582031 43.097656 -14.972656 43.121094 -16.773438 C 43.144531 -18.367188 43.25 -20.082031 43.476562 -21.960938 C 43.664062 -23.800781 43.894531 -25.71875 44.167969 -27.679688 C 44.398438 -29.636719 44.628906 -31.597656 44.859375 -33.597656 C 45.046875 -35.601562 45.15625 -37.5625 45.179688 -39.523438 C 44.203125 -39.863281 43.269531 -40.285156 42.457031 -40.789062 C 41.605469 -41.25 40.792969 -41.710938 39.980469 -42.128906 C 39.167969 -42.550781 38.394531 -42.925781 37.582031 -43.222656 C 36.769531 -43.519531 35.953125 -43.695312 35.054688 -43.707031 C 33.417969 -43.730469 31.898438 -43.21875 30.574219 -42.210938 C 29.210938 -41.207031 27.929688 -39.917969 26.761719 -38.296875 C 25.554688 -36.675781 24.382812 -34.808594 23.292969 -32.777344 C 22.164062 -30.707031 21.03125 -28.636719 19.941406 -26.523438 C 19.917969 -27.835938 19.972656 -29.140625 20.113281 -30.449219 C 20.210938 -31.714844 20.351562 -32.941406 20.488281 -34.085938 C 20.628906 -35.226562 20.761719 -36.246094 20.898438 -37.226562 C 20.992188 -38.167969 21.085938 -38.984375 21.09375 -39.636719 C 20.570312 -40.21875 20.085938 -40.835938 19.605469 -41.417969 C 19.121094 -41.996094 18.636719 -42.492188 18.152344 -42.90625 C 17.667969 -43.324219 17.222656 -43.695312 16.773438 -43.949219 C 16.328125 -44.199219 15.878906 -44.371094 15.429688 -44.375 Z M -1.480469 -36.582031 "/></g></g></g><g fill="#2b2b2b" fill-opacity="1"><g transform="translate(225.676014, 162.214777)"><g><path d="M 37.617188 -8.039062 L 35.722656 -12.71875 C 34.636719 -12.285156 33.546875 -11.804688 32.378906 -11.371094 C 31.210938 -10.9375 30.125 -10.542969 29.085938 -10.226562 C 28.003906 -9.871094 27.050781 -9.628906 26.140625 -9.429688 C 25.230469 -9.230469 24.449219 -9.144531 23.875 -9.171875 C 23.140625 -9.210938 22.414062 -9.410156 21.699219 -9.855469 C 20.980469 -10.257812 20.269531 -10.785156 19.648438 -11.472656 C 19.027344 -12.15625 18.410156 -12.925781 17.882812 -13.8125 C 17.308594 -14.660156 16.824219 -15.582031 16.421875 -16.585938 L 37.265625 -25.664062 C 37.40625 -26.84375 37.386719 -28.113281 37.164062 -29.4375 C 36.902344 -30.757812 36.519531 -32.089844 35.96875 -33.386719 C 35.375 -34.644531 34.660156 -35.867188 33.816406 -37.054688 C 32.933594 -38.246094 31.960938 -39.277344 30.863281 -40.191406 C 29.757812 -41.0625 28.609375 -41.816406 27.324219 -42.371094 C 26.042969 -42.925781 24.75 -43.277344 23.363281 -43.347656 C 21.171875 -42.144531 19.070312 -41.0625 17.140625 -40.09375 C 15.207031 -39.125 13.398438 -38.148438 11.753906 -37.167969 C 10.066406 -36.1875 8.582031 -35.15625 7.261719 -34.113281 C 5.902344 -33.078125 4.738281 -31.90625 3.773438 -30.644531 C 2.808594 -29.339844 2.039062 -27.90625 1.472656 -26.335938 C 0.898438 -24.726562 0.605469 -22.898438 0.503906 -20.855469 C 0.414062 -19.019531 0.484375 -17.171875 0.800781 -15.273438 C 1.074219 -13.375 1.515625 -11.554688 2.164062 -9.761719 C 2.8125 -7.96875 3.589844 -6.292969 4.574219 -4.6875 C 5.515625 -3.082031 6.632812 -1.675781 7.882812 -0.425781 C 9.128906 0.820312 10.515625 1.832031 12.027344 2.644531 C 13.542969 3.457031 15.195312 3.988281 16.988281 4.199219 Z M 14.25 -26.398438 C 14.296875 -27.335938 14.417969 -28.148438 14.699219 -28.871094 C 14.980469 -29.554688 15.292969 -30.113281 15.726562 -30.582031 C 16.117188 -31.054688 16.542969 -31.359375 17.003906 -31.582031 C 17.464844 -31.804688 17.921875 -31.90625 18.410156 -31.882812 C 18.902344 -31.859375 19.425781 -31.667969 19.941406 -31.398438 C 20.460938 -31.085938 20.933594 -30.691406 21.359375 -30.261719 C 21.75 -29.832031 22.09375 -29.324219 22.355469 -28.820312 C 22.613281 -28.273438 22.753906 -27.777344 22.726562 -27.285156 C 22.707031 -26.878906 22.566406 -26.476562 22.300781 -26.078125 C 22.035156 -25.683594 21.5625 -25.257812 20.96875 -24.835938 C 20.332031 -24.417969 19.492188 -23.96875 18.484375 -23.484375 C 17.476562 -22.960938 16.222656 -22.410156 14.714844 -21.789062 C 14.308594 -23.488281 14.179688 -25.007812 14.25 -26.398438 Z M 14.25 -26.398438 "/></g></g></g><g fill="#2b2b2b" fill-opacity="1"><g transform="translate(260.4948, 164.058121)"><g/></g></g><g fill="#2b2b2b" fill-opacity="1"><g transform="translate(272.403989, 164.805493)"><g><path d="M 35.347656 -7.804688 L 33.265625 -12.054688 C 32.625 -11.785156 31.941406 -11.476562 31.210938 -11.132812 C 30.4375 -10.75 29.667969 -10.40625 28.898438 -10.066406 C 28.128906 -9.722656 27.328125 -9.464844 26.570312 -9.289062 C 25.773438 -9.070312 25.027344 -9.015625 24.375 -9.074219 C 23.480469 -9.152344 22.601562 -9.4375 21.832031 -9.996094 C 21.019531 -10.5625 20.261719 -11.246094 19.601562 -12.128906 C 18.9375 -13.007812 18.328125 -13.964844 17.769531 -15.082031 C 17.210938 -16.199219 16.78125 -17.347656 16.433594 -18.527344 C 16.046875 -19.710938 15.785156 -20.925781 15.652344 -22.167969 C 15.511719 -23.371094 15.492188 -24.523438 15.585938 -25.582031 C 15.730469 -27.171875 16.121094 -28.328125 16.835938 -29 C 17.511719 -29.679688 18.523438 -29.960938 19.910156 -29.835938 C 20.886719 -29.75 21.972656 -29.488281 23.164062 -29.050781 C 24.355469 -28.617188 25.507812 -28.1875 26.613281 -27.675781 C 27.71875 -27.167969 28.707031 -26.75 29.574219 -26.34375 C 30.441406 -25.941406 31.082031 -25.757812 31.488281 -25.722656 C 31.914062 -26.339844 32.347656 -27.082031 32.835938 -27.941406 C 33.28125 -28.804688 33.699219 -29.796875 34.125 -30.867188 C 34.503906 -31.898438 34.851562 -33.019531 35.160156 -34.179688 C 35.46875 -35.34375 35.695312 -36.515625 35.882812 -37.6875 C 35.265625 -38.152344 34.484375 -38.59375 33.542969 -39.089844 C 32.5625 -39.585938 31.449219 -40.015625 30.21875 -40.453125 C 28.980469 -40.851562 27.617188 -41.21875 26.164062 -41.511719 C 24.714844 -41.804688 23.175781 -42.066406 21.628906 -42.203125 C 18.625 -40.296875 15.929688 -38.609375 13.542969 -37.179688 C 11.113281 -35.710938 9.050781 -34.214844 7.3125 -32.683594 C 5.574219 -31.15625 4.1875 -29.433594 3.160156 -27.554688 C 2.125 -25.636719 1.503906 -23.269531 1.253906 -20.5 C 0.96875 -17.28125 1.230469 -14.21875 2.035156 -11.3125 C 2.84375 -8.410156 4.011719 -5.839844 5.53125 -3.570312 C 7.054688 -1.300781 8.816406 0.582031 10.859375 2.078125 C 12.902344 3.574219 15.03125 4.542969 17.214844 4.902344 Z M 35.347656 -7.804688 "/></g></g></g><g fill="#2b2b2b" fill-opacity="1"><g transform="translate(302.505668, 167.436515)"><g><path d="M 23.777344 -42.261719 C 20.523438 -40.878906 17.566406 -39.585938 14.914062 -38.417969 C 12.265625 -37.25 9.96875 -35.960938 7.992188 -34.589844 C 6.019531 -33.21875 4.476562 -31.671875 3.277344 -29.921875 C 2.082031 -28.167969 1.371094 -26.027344 1.074219 -23.511719 C 0.8125 -21.320312 0.898438 -19.289062 1.417969 -17.417969 C 1.894531 -15.546875 2.628906 -13.769531 3.664062 -12.082031 C 4.699219 -10.394531 5.90625 -8.769531 7.285156 -7.203125 C 8.660156 -5.640625 10.15625 -4.019531 11.699219 -2.4375 C 12.246094 -1.835938 12.636719 -1.335938 12.914062 -0.890625 C 13.191406 -0.445312 13.308594 -0.0625 13.308594 0.308594 C 13.300781 0.71875 13.167969 1.117188 12.878906 1.492188 C 12.582031 1.910156 12.191406 2.402344 11.714844 2.960938 C 12.148438 3.796875 12.902344 4.75 13.929688 5.777344 C 14.960938 6.808594 16.132812 7.6875 17.527344 8.429688 C 19.324219 6.832031 21.167969 5.199219 23.050781 3.570312 C 24.890625 1.9375 26.734375 0.304688 28.492188 -1.339844 C 30.253906 -2.984375 31.894531 -4.640625 33.453125 -6.308594 C 35.003906 -7.9375 36.398438 -9.621094 37.628906 -11.289062 C 38.816406 -12.960938 39.847656 -14.691406 40.628906 -16.410156 C 41.410156 -18.128906 41.941406 -19.835938 42.148438 -21.582031 C 42.433594 -23.976562 42.136719 -26.320312 41.296875 -28.601562 C 40.457031 -30.882812 39.222656 -32.96875 37.554688 -34.855469 C 35.878906 -36.703125 33.847656 -38.304688 31.492188 -39.613281 C 29.089844 -40.886719 26.515625 -41.769531 23.777344 -42.261719 Z M 18.953125 -30.480469 C 19.5625 -30.410156 20.222656 -30.082031 20.984375 -29.539062 C 21.699219 -29 22.441406 -28.296875 23.164062 -27.46875 C 23.890625 -26.640625 24.558594 -25.695312 25.257812 -24.625 C 25.910156 -23.558594 26.484375 -22.5 26.972656 -21.414062 C 27.457031 -20.285156 27.824219 -19.210938 28.109375 -18.148438 C 28.347656 -17.046875 28.441406 -16.089844 28.34375 -15.277344 C 28.257812 -14.546875 28.011719 -13.875 27.695312 -13.296875 C 27.332031 -12.679688 26.945312 -12.191406 26.527344 -11.789062 C 26.066406 -11.390625 25.617188 -11.074219 25.183594 -10.878906 C 24.746094 -10.683594 24.367188 -10.605469 24.082031 -10.636719 C 23.597656 -10.695312 23.058594 -11.007812 22.394531 -11.664062 C 21.730469 -12.320312 21.003906 -13.144531 20.300781 -14.136719 C 19.59375 -15.125 18.859375 -16.203125 18.179688 -17.4375 C 17.464844 -18.675781 16.824219 -19.863281 16.308594 -21.078125 C 15.75 -22.257812 15.304688 -23.378906 15.019531 -24.445312 C 14.730469 -25.464844 14.628906 -26.34375 14.710938 -27.035156 C 14.769531 -27.519531 14.90625 -27.957031 15.207031 -28.417969 C 15.503906 -28.835938 15.835938 -29.207031 16.246094 -29.527344 C 16.652344 -29.851562 17.09375 -30.085938 17.570312 -30.277344 C 18.046875 -30.464844 18.507812 -30.535156 18.953125 -30.480469 Z M 18.953125 -30.480469 "/></g></g></g><g fill="#2b2b2b" fill-opacity="1"><g transform="translate(338.882449, 171.842997)"><g><path d="M 4.878906 -3.953125 L 8.402344 4.128906 L 24.644531 1.058594 C 24.570312 -0.6875 24.410156 -2.40625 24.117188 -4.058594 C 23.816406 -5.675781 23.375 -7.1875 22.785156 -8.511719 C 22.15625 -9.847656 21.375 -10.996094 20.441406 -11.957031 C 19.5 -12.882812 18.359375 -13.546875 17.046875 -13.902344 C 15.621094 -13.203125 14.363281 -12.519531 13.273438 -11.855469 C 12.183594 -11.1875 11.210938 -10.464844 10.3125 -9.6875 C 9.410156 -8.910156 8.546875 -8.085938 7.667969 -7.179688 C 6.785156 -6.234375 5.886719 -5.167969 4.878906 -3.953125 Z M 4.878906 -3.953125 "/></g></g></g><g fill="#2b2b2b" fill-opacity="1"><g transform="translate(96.449187, 219.078488)"><g><path d="M 33.53125 -7.355469 L 31.914062 -10.304688 C 31.429688 -10.023438 30.949219 -9.738281 30.4375 -9.453125 C 29.925781 -9.171875 29.441406 -8.914062 28.988281 -8.6875 C 28.503906 -8.460938 28.050781 -8.289062 27.652344 -8.175781 C 27.226562 -8.035156 26.859375 -7.976562 26.574219 -7.976562 C 25.867188 -7.976562 25.324219 -8.375 24.984375 -9.171875 C 24.644531 -9.964844 24.472656 -11.242188 24.472656 -13.03125 C 24.472656 -13.941406 24.503906 -14.90625 24.585938 -15.929688 C 24.671875 -16.921875 24.757812 -17.945312 24.871094 -18.964844 C 24.957031 -19.988281 25.042969 -21.011719 25.097656 -22.03125 C 25.15625 -23.054688 25.183594 -24.105469 25.183594 -25.128906 C 24.019531 -25.867188 22.941406 -26.574219 21.945312 -27.285156 C 20.953125 -27.964844 19.929688 -28.589844 18.851562 -29.160156 C 17.773438 -29.726562 16.609375 -30.152344 15.359375 -30.492188 C 14.082031 -30.832031 12.605469 -31.003906 10.929688 -31.003906 L -0.226562 -24.390625 L 1.5625 -20.386719 C 2.242188 -20.667969 2.894531 -20.953125 3.519531 -21.238281 C 4.144531 -21.519531 4.742188 -21.75 5.308594 -21.945312 C 5.878906 -22.144531 6.417969 -22.316406 6.984375 -22.429688 C 7.523438 -22.542969 8.089844 -22.601562 8.660156 -22.601562 C 9.058594 -22.601562 9.484375 -22.570312 9.964844 -22.515625 C 10.421875 -22.457031 10.902344 -22.375 11.355469 -22.257812 C 11.8125 -22.144531 12.265625 -22.003906 12.691406 -21.832031 C 13.117188 -21.664062 13.515625 -21.492188 13.855469 -21.292969 C 14.339844 -20.980469 14.679688 -20.640625 14.90625 -20.273438 C 15.132812 -19.902344 15.246094 -19.5625 15.246094 -19.25 C 15.246094 -18.796875 15.046875 -18.453125 14.679688 -18.171875 C 14.308594 -17.886719 13.796875 -17.601562 13.175781 -17.375 C 12.519531 -17.121094 11.753906 -16.894531 10.875 -16.667969 C 9.992188 -16.4375 9.058594 -16.15625 8.035156 -15.84375 C 6.671875 -15.386719 5.453125 -14.933594 4.429688 -14.453125 C 3.378906 -13.941406 2.5 -13.371094 1.789062 -12.71875 C 1.078125 -12.039062 0.539062 -11.273438 0.199219 -10.421875 C -0.171875 -9.539062 -0.339844 -8.519531 -0.339844 -7.355469 C -0.339844 -6.21875 -0.199219 -5.109375 0.140625 -4.058594 C 0.484375 -3.007812 0.964844 -2.074219 1.617188 -1.222656 C 2.269531 -0.367188 3.066406 0.367188 4.03125 0.964844 C 4.96875 1.5625 6.046875 1.988281 7.296875 2.214844 L 15.644531 -3.976562 C 15.816406 -2.355469 16.242188 -0.964844 16.980469 0.171875 C 17.714844 1.335938 18.824219 2.128906 20.355469 2.527344 Z M 15.191406 -14.140625 C 15.191406 -13.257812 15.21875 -12.492188 15.21875 -11.867188 C 15.21875 -11.214844 15.191406 -10.648438 15.132812 -10.191406 C 15.078125 -9.738281 15.019531 -9.339844 14.90625 -9 C 14.792969 -8.660156 14.652344 -8.347656 14.480469 -8.089844 C 14.308594 -7.863281 14.140625 -7.636719 13.914062 -7.4375 C 13.683594 -7.210938 13.484375 -7.042969 13.257812 -6.871094 C 13.03125 -6.699219 12.804688 -6.585938 12.578125 -6.5 C 12.351562 -6.417969 12.152344 -6.386719 11.980469 -6.386719 C 11.726562 -6.386719 11.46875 -6.472656 11.242188 -6.644531 C 11.015625 -6.8125 10.789062 -7.070312 10.617188 -7.382812 C 10.449219 -7.695312 10.304688 -8.0625 10.191406 -8.488281 C 10.078125 -8.914062 10.023438 -9.371094 10.023438 -9.851562 C 10.023438 -10.535156 10.136719 -11.074219 10.363281 -11.46875 C 10.589844 -11.867188 10.960938 -12.238281 11.414062 -12.519531 C 11.867188 -12.804688 12.40625 -13.058594 13.03125 -13.289062 C 13.65625 -13.515625 14.394531 -13.796875 15.191406 -14.140625 Z M 15.191406 -14.140625 "/></g></g></g><g fill="#2b2b2b" fill-opacity="1"><g transform="translate(124.693164, 219.078488)"><g><path d="M -1.449219 -25.554688 L -0.511719 -21.863281 C -0.339844 -21.945312 -0.0859375 -22.03125 0.199219 -22.117188 C 0.484375 -22.203125 0.738281 -22.257812 0.992188 -22.257812 C 1.960938 -22.257812 2.667969 -21.292969 3.066406 -19.421875 C 3.464844 -17.546875 3.71875 -14.679688 3.832031 -10.875 C 3.320312 -10.988281 2.867188 -11.074219 2.46875 -11.128906 C 2.074219 -11.1875 1.730469 -11.242188 1.476562 -11.242188 C 1.078125 -10.5625 0.796875 -9.851562 0.625 -9.113281 C 0.453125 -8.375 0.367188 -7.609375 0.339844 -6.8125 C 0.3125 -6.019531 0.339844 -5.167969 0.398438 -4.316406 C 0.453125 -3.433594 0.484375 -2.527344 0.539062 -1.589844 L 3.917969 -1.191406 L 3.917969 -0.851562 C 3.917969 0.878906 3.890625 2.328125 3.863281 3.492188 C 3.832031 4.683594 3.777344 5.679688 3.664062 6.472656 C 3.550781 7.269531 3.378906 7.949219 3.179688 8.488281 C 2.953125 9.027344 2.667969 9.511719 2.328125 9.964844 C 1.960938 10.421875 1.503906 10.875 0.992188 11.328125 C 0.453125 11.78125 -0.199219 12.351562 -0.9375 13.003906 L 1.105469 16.695312 L 13.769531 10.476562 C 13.769531 10.109375 13.714844 9.683594 13.628906 9.199219 C 13.542969 8.714844 13.457031 8.089844 13.34375 7.296875 C 13.230469 6.5 13.089844 5.507812 12.976562 4.316406 C 12.832031 3.125 12.71875 1.617188 12.632812 -0.199219 L 17.859375 0.367188 C 19.5625 -0.910156 21.125 -2.300781 22.542969 -3.777344 C 23.964844 -5.253906 25.210938 -6.785156 26.234375 -8.375 C 27.257812 -9.964844 28.050781 -11.613281 28.621094 -13.316406 C 29.1875 -15.019531 29.472656 -16.75 29.472656 -18.511719 C 29.472656 -20.273438 29.1875 -21.890625 28.621094 -23.367188 C 28.050781 -24.84375 27.285156 -26.121094 26.320312 -27.199219 C 25.355469 -28.277344 24.21875 -29.160156 22.96875 -29.839844 C 21.691406 -30.492188 20.355469 -30.890625 18.964844 -31.03125 L 12.550781 -24.390625 C 12.378906 -26.375 12.011719 -27.910156 11.386719 -29.015625 C 10.761719 -30.097656 10.078125 -30.75 9.371094 -30.949219 Z M 12.464844 -8.574219 L 12.464844 -8.632812 C 12.464844 -11.214844 12.492188 -13.34375 12.605469 -15.046875 C 12.691406 -16.75 12.917969 -18.058594 13.316406 -19.023438 C 13.515625 -19.449219 13.769531 -19.847656 14.082031 -20.214844 C 14.394531 -20.585938 14.734375 -20.78125 15.132812 -20.78125 C 15.472656 -20.78125 15.929688 -20.554688 16.4375 -20.160156 C 16.949219 -19.734375 17.433594 -19.164062 17.886719 -18.425781 C 18.339844 -17.6875 18.710938 -16.835938 19.050781 -15.871094 C 19.363281 -14.878906 19.535156 -13.796875 19.535156 -12.664062 C 19.535156 -11.1875 19.25 -10.023438 18.710938 -9.171875 C 18.144531 -8.320312 17.375 -7.894531 16.355469 -7.894531 C 15.957031 -7.894531 15.386719 -7.949219 14.707031 -8.0625 C 14.027344 -8.175781 13.257812 -8.347656 12.464844 -8.574219 Z M 12.464844 -8.574219 "/></g></g></g><g fill="#2b2b2b" fill-opacity="1"><g transform="translate(153.419702, 219.078488)"><g><path d="M -1.449219 -25.554688 L -0.511719 -21.863281 C -0.339844 -21.945312 -0.0859375 -22.03125 0.199219 -22.117188 C 0.484375 -22.203125 0.738281 -22.257812 0.992188 -22.257812 C 1.960938 -22.257812 2.667969 -21.292969 3.066406 -19.421875 C 3.464844 -17.546875 3.71875 -14.679688 3.832031 -10.875 C 3.320312 -10.988281 2.867188 -11.074219 2.46875 -11.128906 C 2.074219 -11.1875 1.730469 -11.242188 1.476562 -11.242188 C 1.078125 -10.5625 0.796875 -9.851562 0.625 -9.113281 C 0.453125 -8.375 0.367188 -7.609375 0.339844 -6.8125 C 0.3125 -6.019531 0.339844 -5.167969 0.398438 -4.316406 C 0.453125 -3.433594 0.484375 -2.527344 0.539062 -1.589844 L 3.917969 -1.191406 L 3.917969 -0.851562 C 3.917969 0.878906 3.890625 2.328125 3.863281 3.492188 C 3.832031 4.683594 3.777344 5.679688 3.664062 6.472656 C 3.550781 7.269531 3.378906 7.949219 3.179688 8.488281 C 2.953125 9.027344 2.667969 9.511719 2.328125 9.964844 C 1.960938 10.421875 1.503906 10.875 0.992188 11.328125 C 0.453125 11.78125 -0.199219 12.351562 -0.9375 13.003906 L 1.105469 16.695312 L 13.769531 10.476562 C 13.769531 10.109375 13.714844 9.683594 13.628906 9.199219 C 13.542969 8.714844 13.457031 8.089844 13.34375 7.296875 C 13.230469 6.5 13.089844 5.507812 12.976562 4.316406 C 12.832031 3.125 12.71875 1.617188 12.632812 -0.199219 L 17.859375 0.367188 C 19.5625 -0.910156 21.125 -2.300781 22.542969 -3.777344 C 23.964844 -5.253906 25.210938 -6.785156 26.234375 -8.375 C 27.257812 -9.964844 28.050781 -11.613281 28.621094 -13.316406 C 29.1875 -15.019531 29.472656 -16.75 29.472656 -18.511719 C 29.472656 -20.273438 29.1875 -21.890625 28.621094 -23.367188 C 28.050781 -24.84375 27.285156 -26.121094 26.320312 -27.199219 C 25.355469 -28.277344 24.21875 -29.160156 22.96875 -29.839844 C 21.691406 -30.492188 20.355469 -30.890625 18.964844 -31.03125 L 12.550781 -24.390625 C 12.378906 -26.375 12.011719 -27.910156 11.386719 -29.015625 C 10.761719 -30.097656 10.078125 -30.75 9.371094 -30.949219 Z M 12.464844 -8.574219 L 12.464844 -8.632812 C 12.464844 -11.214844 12.492188 -13.34375 12.605469 -15.046875 C 12.691406 -16.75 12.917969 -18.058594 13.316406 -19.023438 C 13.515625 -19.449219 13.769531 -19.847656 14.082031 -20.214844 C 14.394531 -20.585938 14.734375 -20.78125 15.132812 -20.78125 C 15.472656 -20.78125 15.929688 -20.554688 16.4375 -20.160156 C 16.949219 -19.734375 17.433594 -19.164062 17.886719 -18.425781 C 18.339844 -17.6875 18.710938 -16.835938 19.050781 -15.871094 C 19.363281 -14.878906 19.535156 -13.796875 19.535156 -12.664062 C 19.535156 -11.1875 19.25 -10.023438 18.710938 -9.171875 C 18.144531 -8.320312 17.375 -7.894531 16.355469 -7.894531 C 15.957031 -7.894531 15.386719 -7.949219 14.707031 -8.0625 C 14.027344 -8.175781 13.257812 -8.347656 12.464844 -8.574219 Z M 12.464844 -8.574219 "/></g></g></g><g fill="#2b2b2b" fill-opacity="1"><g transform="translate(182.14624, 219.078488)"><g><path d="M 33.53125 -7.355469 L 31.914062 -10.304688 C 31.429688 -10.023438 30.949219 -9.738281 30.4375 -9.453125 C 29.925781 -9.171875 29.441406 -8.914062 28.988281 -8.6875 C 28.503906 -8.460938 28.050781 -8.289062 27.652344 -8.175781 C 27.226562 -8.035156 26.859375 -7.976562 26.574219 -7.976562 C 25.867188 -7.976562 25.324219 -8.375 24.984375 -9.171875 C 24.644531 -9.964844 24.472656 -11.242188 24.472656 -13.03125 C 24.472656 -13.941406 24.503906 -14.90625 24.585938 -15.929688 C 24.671875 -16.921875 24.757812 -17.945312 24.871094 -18.964844 C 24.957031 -19.988281 25.042969 -21.011719 25.097656 -22.03125 C 25.15625 -23.054688 25.183594 -24.105469 25.183594 -25.128906 C 24.019531 -25.867188 22.941406 -26.574219 21.945312 -27.285156 C 20.953125 -27.964844 19.929688 -28.589844 18.851562 -29.160156 C 17.773438 -29.726562 16.609375 -30.152344 15.359375 -30.492188 C 14.082031 -30.832031 12.605469 -31.003906 10.929688 -31.003906 L -0.226562 -24.390625 L 1.5625 -20.386719 C 2.242188 -20.667969 2.894531 -20.953125 3.519531 -21.238281 C 4.144531 -21.519531 4.742188 -21.75 5.308594 -21.945312 C 5.878906 -22.144531 6.417969 -22.316406 6.984375 -22.429688 C 7.523438 -22.542969 8.089844 -22.601562 8.660156 -22.601562 C 9.058594 -22.601562 9.484375 -22.570312 9.964844 -22.515625 C 10.421875 -22.457031 10.902344 -22.375 11.355469 -22.257812 C 11.8125 -22.144531 12.265625 -22.003906 12.691406 -21.832031 C 13.117188 -21.664062 13.515625 -21.492188 13.855469 -21.292969 C 14.339844 -20.980469 14.679688 -20.640625 14.90625 -20.273438 C 15.132812 -19.902344 15.246094 -19.5625 15.246094 -19.25 C 15.246094 -18.796875 15.046875 -18.453125 14.679688 -18.171875 C 14.308594 -17.886719 13.796875 -17.601562 13.175781 -17.375 C 12.519531 -17.121094 11.753906 -16.894531 10.875 -16.667969 C 9.992188 -16.4375 9.058594 -16.15625 8.035156 -15.84375 C 6.671875 -15.386719 5.453125 -14.933594 4.429688 -14.453125 C 3.378906 -13.941406 2.5 -13.371094 1.789062 -12.71875 C 1.078125 -12.039062 0.539062 -11.273438 0.199219 -10.421875 C -0.171875 -9.539062 -0.339844 -8.519531 -0.339844 -7.355469 C -0.339844 -6.21875 -0.199219 -5.109375 0.140625 -4.058594 C 0.484375 -3.007812 0.964844 -2.074219 1.617188 -1.222656 C 2.269531 -0.367188 3.066406 0.367188 4.03125 0.964844 C 4.96875 1.5625 6.046875 1.988281 7.296875 2.214844 L 15.644531 -3.976562 C 15.816406 -2.355469 16.242188 -0.964844 16.980469 0.171875 C 17.714844 1.335938 18.824219 2.128906 20.355469 2.527344 Z M 15.191406 -14.140625 C 15.191406 -13.257812 15.21875 -12.492188 15.21875 -11.867188 C 15.21875 -11.214844 15.191406 -10.648438 15.132812 -10.191406 C 15.078125 -9.738281 15.019531 -9.339844 14.90625 -9 C 14.792969 -8.660156 14.652344 -8.347656 14.480469 -8.089844 C 14.308594 -7.863281 14.140625 -7.636719 13.914062 -7.4375 C 13.683594 -7.210938 13.484375 -7.042969 13.257812 -6.871094 C 13.03125 -6.699219 12.804688 -6.585938 12.578125 -6.5 C 12.351562 -6.417969 12.152344 -6.386719 11.980469 -6.386719 C 11.726562 -6.386719 11.46875 -6.472656 11.242188 -6.644531 C 11.015625 -6.8125 10.789062 -7.070312 10.617188 -7.382812 C 10.449219 -7.695312 10.304688 -8.0625 10.191406 -8.488281 C 10.078125 -8.914062 10.023438 -9.371094 10.023438 -9.851562 C 10.023438 -10.535156 10.136719 -11.074219 10.363281 -11.46875 C 10.589844 -11.867188 10.960938 -12.238281 11.414062 -12.519531 C 11.867188 -12.804688 12.40625 -13.058594 13.03125 -13.289062 C 13.65625 -13.515625 14.394531 -13.796875 15.191406 -14.140625 Z M 15.191406 -14.140625 "/></g></g></g><g fill="#2b2b2b" fill-opacity="1"><g transform="translate(210.390217, 219.078488)"><g><path d="M 3.152344 3.039062 L 15.132812 -1.902344 C 15.132812 -2.101562 15.046875 -2.46875 14.933594 -3.007812 C 14.792969 -3.519531 14.652344 -4.144531 14.480469 -4.882812 C 14.308594 -5.621094 14.140625 -6.417969 14.027344 -7.296875 C 13.882812 -8.148438 13.828125 -9.027344 13.828125 -9.9375 C 13.828125 -10.589844 13.855469 -11.300781 13.96875 -12.066406 C 14.054688 -12.832031 14.195312 -13.601562 14.367188 -14.339844 C 14.535156 -15.078125 14.765625 -15.816406 15.046875 -16.496094 C 15.304688 -17.175781 15.617188 -17.800781 15.957031 -18.339844 C 16.296875 -18.851562 16.667969 -19.277344 17.09375 -19.589844 C 17.488281 -19.902344 17.945312 -20.074219 18.425781 -20.074219 C 19.109375 -20.074219 19.675781 -19.734375 20.074219 -19.109375 C 20.472656 -18.484375 20.78125 -17.660156 21.039062 -16.636719 L 24.390625 -16.667969 C 24.503906 -17.460938 24.644531 -18.371094 24.816406 -19.390625 C 24.957031 -20.414062 25.097656 -21.464844 25.210938 -22.570312 C 25.324219 -23.652344 25.441406 -24.757812 25.523438 -25.867188 C 25.609375 -26.945312 25.667969 -27.964844 25.722656 -28.933594 C 25.382812 -29.160156 24.984375 -29.414062 24.472656 -29.640625 C 23.964844 -29.867188 23.421875 -30.066406 22.800781 -30.238281 C 22.175781 -30.40625 21.519531 -30.550781 20.839844 -30.664062 C 20.128906 -30.75 19.421875 -30.804688 18.683594 -30.804688 C 18.339844 -30.292969 17.972656 -29.667969 17.574219 -28.875 C 17.148438 -28.078125 16.722656 -27.171875 16.269531 -26.175781 C 15.816406 -25.15625 15.332031 -24.078125 14.878906 -22.914062 C 14.394531 -21.75 13.941406 -20.554688 13.542969 -19.308594 C 13.542969 -20.101562 13.542969 -20.953125 13.570312 -21.832031 C 13.601562 -22.683594 13.628906 -23.539062 13.65625 -24.359375 C 13.683594 -25.183594 13.714844 -25.949219 13.769531 -26.660156 C 13.796875 -27.339844 13.828125 -27.9375 13.882812 -28.390625 C 13.484375 -28.703125 13.117188 -29.015625 12.777344 -29.328125 C 12.4375 -29.640625 12.066406 -29.925781 11.726562 -30.179688 C 11.386719 -30.40625 11.015625 -30.605469 10.648438 -30.777344 C 10.277344 -30.917969 9.878906 -31.003906 9.484375 -31.003906 L -1.363281 -25.382812 L -0.484375 -21.71875 C -0.0585938 -21.917969 0.285156 -22.0625 0.566406 -22.144531 C 0.851562 -22.230469 1.105469 -22.289062 1.335938 -22.289062 C 1.789062 -22.289062 2.15625 -22.117188 2.441406 -21.804688 C 2.726562 -21.464844 2.980469 -20.925781 3.179688 -20.128906 C 3.351562 -19.335938 3.492188 -18.257812 3.578125 -16.921875 C 3.632812 -15.585938 3.691406 -13.914062 3.691406 -11.867188 C 3.691406 -10.449219 3.664062 -9.226562 3.632812 -8.261719 C 3.578125 -7.296875 3.519531 -6.472656 3.433594 -5.820312 C 3.351562 -5.140625 3.238281 -4.597656 3.09375 -4.171875 C 2.953125 -3.746094 2.78125 -3.378906 2.582031 -3.066406 C 2.355469 -2.726562 2.128906 -2.441406 1.84375 -2.15625 C 1.5625 -1.875 1.222656 -1.5625 0.878906 -1.191406 C 0.992188 -0.3125 1.277344 0.511719 1.703125 1.25 C 2.128906 2.015625 2.613281 2.613281 3.152344 3.039062 Z M 3.152344 3.039062 "/></g></g></g><g fill="#2b2b2b" fill-opacity="1"><g transform="translate(234.688554, 219.078488)"><g><path d="M 25.808594 -6.871094 L 24.332031 -10.050781 C 23.59375 -9.710938 22.855469 -9.339844 22.0625 -9 C 21.265625 -8.660156 20.527344 -8.347656 19.816406 -8.089844 C 19.078125 -7.808594 18.425781 -7.609375 17.800781 -7.4375 C 17.175781 -7.269531 16.636719 -7.183594 16.242188 -7.183594 C 15.730469 -7.183594 15.21875 -7.296875 14.707031 -7.582031 C 14.195312 -7.835938 13.683594 -8.175781 13.230469 -8.632812 C 12.777344 -9.085938 12.320312 -9.597656 11.925781 -10.191406 C 11.5 -10.761719 11.128906 -11.386719 10.816406 -12.066406 L 24.957031 -19.078125 C 25.011719 -19.902344 24.957031 -20.78125 24.757812 -21.691406 C 24.53125 -22.601562 24.21875 -23.507812 23.792969 -24.390625 C 23.339844 -25.242188 22.800781 -26.0625 22.175781 -26.859375 C 21.519531 -27.652344 20.8125 -28.335938 20.015625 -28.933594 C 19.222656 -29.5 18.398438 -29.980469 17.488281 -30.324219 C 16.582031 -30.664062 15.671875 -30.863281 14.707031 -30.863281 C 13.230469 -29.953125 11.8125 -29.128906 10.503906 -28.390625 C 9.199219 -27.652344 7.976562 -26.914062 6.871094 -26.175781 C 5.734375 -25.441406 4.742188 -24.671875 3.863281 -23.90625 C 2.953125 -23.140625 2.1875 -22.289062 1.5625 -21.378906 C 0.9375 -20.441406 0.453125 -19.421875 0.113281 -18.3125 C -0.226562 -17.175781 -0.367188 -15.898438 -0.367188 -14.480469 C -0.367188 -13.203125 -0.253906 -11.925781 0.0273438 -10.617188 C 0.285156 -9.3125 0.652344 -8.0625 1.164062 -6.84375 C 1.675781 -5.621094 2.269531 -4.484375 3.007812 -3.40625 C 3.71875 -2.328125 4.542969 -1.390625 5.453125 -0.566406 C 6.359375 0.253906 7.355469 0.910156 8.433594 1.417969 C 9.511719 1.929688 10.675781 2.242188 11.925781 2.328125 Z M 8.972656 -18.796875 C 8.972656 -19.449219 9.027344 -20.015625 9.199219 -20.527344 C 9.371094 -21.011719 9.566406 -21.40625 9.851562 -21.75 C 10.109375 -22.089844 10.390625 -22.316406 10.703125 -22.488281 C 11.015625 -22.65625 11.328125 -22.742188 11.667969 -22.742188 C 12.011719 -22.742188 12.378906 -22.628906 12.75 -22.457031 C 13.117188 -22.257812 13.457031 -22.003906 13.769531 -21.71875 C 14.054688 -21.4375 14.308594 -21.09375 14.507812 -20.753906 C 14.707031 -20.386719 14.820312 -20.046875 14.820312 -19.703125 C 14.820312 -19.421875 14.734375 -19.136719 14.566406 -18.851562 C 14.394531 -18.570312 14.082031 -18.257812 13.683594 -17.945312 C 13.257812 -17.632812 12.691406 -17.289062 12.011719 -16.921875 C 11.328125 -16.523438 10.476562 -16.097656 9.453125 -15.617188 C 9.113281 -16.78125 8.972656 -17.832031 8.972656 -18.796875 Z M 8.972656 -18.796875 "/></g></g></g><g fill="#2b2b2b" fill-opacity="1"><g transform="translate(259.213977, 219.078488)"><g><path d="M 24.730469 -8.828125 L 22.96875 -11.585938 C 22.289062 -11.128906 21.605469 -10.703125 20.898438 -10.304688 C 20.160156 -9.878906 19.476562 -9.511719 18.796875 -9.171875 C 18.113281 -8.828125 17.460938 -8.546875 16.863281 -8.347656 C 16.269531 -8.121094 15.757812 -8.035156 15.359375 -8.035156 C 14.679688 -8.035156 14.109375 -8.289062 13.601562 -8.859375 C 13.089844 -9.425781 12.632812 -10.222656 12.265625 -11.242188 C 11.894531 -12.265625 11.585938 -13.515625 11.355469 -14.992188 C 11.101562 -16.46875 10.902344 -18.085938 10.789062 -19.902344 C 12.605469 -21.71875 14.394531 -23.394531 16.097656 -24.871094 C 17.800781 -26.347656 19.335938 -27.769531 20.667969 -29.101562 C 21.976562 -30.4375 23.054688 -31.742188 23.847656 -33.019531 C 24.644531 -34.269531 25.070312 -35.605469 25.070312 -37.023438 C 25.070312 -38.246094 24.730469 -39.378906 24.105469 -40.457031 C 23.480469 -41.507812 22.601562 -42.417969 21.492188 -43.214844 C 20.386719 -43.980469 19.078125 -44.574219 17.574219 -45.03125 C 16.042969 -45.484375 14.421875 -45.710938 12.664062 -45.710938 C 11.300781 -44.460938 10.050781 -43.355469 8.914062 -42.390625 C 7.78125 -41.425781 6.757812 -40.488281 5.878906 -39.550781 C 4.96875 -38.613281 4.203125 -37.621094 3.519531 -36.539062 C 2.839844 -35.460938 2.300781 -34.15625 1.875 -32.679688 C 1.417969 -31.203125 1.105469 -29.441406 0.878906 -27.398438 C 0.652344 -25.355469 0.566406 -22.914062 0.566406 -20.046875 C 0.566406 -16.980469 0.710938 -14.109375 0.992188 -11.5 C 1.277344 -8.859375 1.789062 -6.558594 2.527344 -4.570312 C 3.265625 -2.582031 4.257812 -0.964844 5.507812 0.285156 C 6.757812 1.53125 8.375 2.269531 10.363281 2.527344 Z M 10.5625 -27.9375 C 10.5625 -29.867188 10.589844 -31.457031 10.703125 -32.707031 C 10.789062 -33.957031 10.929688 -34.980469 11.128906 -35.71875 C 11.328125 -36.457031 11.585938 -36.964844 11.867188 -37.25 C 12.152344 -37.535156 12.519531 -37.703125 12.917969 -37.703125 C 13.316406 -37.703125 13.714844 -37.5625 14.109375 -37.335938 C 14.480469 -37.082031 14.820312 -36.769531 15.132812 -36.398438 C 15.417969 -36 15.671875 -35.605469 15.84375 -35.148438 C 16.011719 -34.695312 16.125 -34.242188 16.125 -33.84375 C 16.125 -33.417969 16.011719 -32.933594 15.816406 -32.394531 C 15.617188 -31.855469 15.304688 -31.230469 14.878906 -30.492188 C 14.421875 -29.753906 13.855469 -28.875 13.175781 -27.910156 C 12.464844 -26.914062 11.613281 -25.78125 10.589844 -24.472656 C 10.5625 -25.011719 10.5625 -25.582031 10.5625 -26.148438 Z M 10.5625 -27.9375 "/></g></g></g></svg>